Coordinates
version=1
nRows=22
nColumns=24
inDegrees=yes

Units are S.I. units (second, meters, Newtons, ...)
Angles are in degrees.

endheader
time	pelvis_tilt	pelvis_list	pelvis_rotation	pelvis_tx	pelvis_ty	pelvis_tz	hip_flexion_r	hip_adduction_r	hip_rotation_r	knee_angle_r	ankle_angle_r	subtalar_angle_r	mtp_angle_r	hip_flexion_l	hip_adduction_l	hip_rotation_l	knee_angle_l	ankle_angle_l	subtalar_angle_l	mtp_angle_l	lumbar_extension	lumbar_bending	lumbar_rotation
      3.69500000	    -10.22948268	      4.95559972	     -2.04195971	     -2.14694033	     -0.01577279	     -0.64115119	     19.69890330	     -8.01876999	     -3.62453682	    -63.52077696	    -15.97399246	    -19.70420050	     -0.46267977	     25.04969722	      6.89258480	    -13.97813589	    -20.64278670	      1.89238757	    -10.64510401	      1.56882062	      7.00162498	     -5.21077624	      0.30774608
      3.70000000	    -10.40068895	      4.90314532	     -1.89693123	     -2.14228691	     -0.01529779	     -0.64205828	     20.73533754	     -7.97390157	     -3.61956279	    -64.32010542	    -15.28926581	    -19.73712113	     -0.86987970	     24.78726649	      7.01943505	    -13.69714487	    -20.38425339	      1.93045379	    -10.83953299	      1.55106558	      7.10009289	     -5.15502043	      0.03070483
      3.70500000	    -10.33982829	      4.78281203	     -1.83956126	     -2.13755797	     -0.01446723	     -0.64276794	     21.46429068	     -7.80823633	     -3.57148595	    -64.91416997	    -14.84575726	    -20.00083217	     -0.81483729	     24.22932411	      7.03372507	    -13.53434323	    -20.08311440	      2.14061862	    -10.81445283	      1.58341828	      6.96448130	     -5.03145842	     -0.15060073
      3.71000000	    -10.44877319	      4.73089327	     -1.70154119	     -2.13281649	     -0.01390207	     -0.64361174	     22.38189023	     -7.75585472	     -3.57170095	    -65.50537708	    -14.21887270	    -20.00979786	     -0.82472463	     23.86132858	      7.14216934	    -13.32162441	    -19.78522990	      2.34865787	    -10.72890815	      1.55355418	      7.01793354	     -4.97492532	     -0.34537720
      3.71500000	    -10.50755700	      4.64363566	     -1.60605343	     -2.12813769	     -0.01324469	     -0.64434967	     23.22917852	     -7.62833000	     -3.53489677	    -65.98781357	    -13.61894031	    -20.04110944	     -0.76358547	     23.43637190	      7.19525463	    -13.12591801	    -19.47938423	      2.52525694	    -10.69438290	      1.47718207	      7.01777731	     -4.88544936	     -0.53560463
      3.72000000	    -10.51313167	      4.56422566	     -1.51448690	     -2.12342656	     -0.01249862	     -0.64503028	     23.99092192	     -7.50081148	     -3.50882773	    -66.36413227	    -13.06684760	    -20.13749868	     -0.63854322	     22.93018539	      7.25107422	    -12.92967771	    -19.13676367	      2.68278232	    -10.60326369	      1.44291989	      6.96953190	     -4.80906723	     -0.72218838
      3.72500000	    -10.54479627	      4.49363117	     -1.37537302	     -2.11872481	     -0.01183255	     -0.64582305	     24.75371578	     -7.41029734	     -3.51059608	    -66.66960208	    -12.39767055	    -20.04164888	     -0.39317284	     22.45696173	      7.33359655	    -12.77175213	    -18.79168245	      2.86336503	    -10.53115596	      1.36845446	      6.94316935	     -4.73984710	     -0.95217150
      3.73000000	    -10.54703755	      4.42675394	     -1.25860739	     -2.11399234	     -0.01109461	     -0.64653646	     25.46028307	     -7.30245668	     -3.48898455	    -66.87282220	    -11.75338494	    -19.96525660	     -0.05672910	     21.92971960	      7.40834407	    -12.60213383	    -18.41288113	      3.00316446	    -10.43625491	      1.26142700	      6.90160308	     -4.67575726	     -1.16610136
      3.73500000	    -10.51533991	      4.36132842	     -1.13211885	     -2.10922937	     -0.01033365	     -0.64728083	     26.10169285	     -7.20928503	     -3.49776760	    -66.98352882	    -11.12713797	    -19.90319573	      0.32851318	     21.35016005	      7.48857739	    -12.43660395	    -18.01014868	      3.16480493	    -10.31245619	      1.19389197	      6.82912869	     -4.61162102	     -1.37169690
      3.74000000	    -10.45787343	      4.29327887	     -1.00427892	     -2.10444897	     -0.00954038	     -0.64801663	     26.68693049	     -7.11321689	     -3.51572866	    -67.00000286	    -10.51176674	    -19.83745793	      0.74651725	     20.73014170	      7.56315973	    -12.28142036	    -17.58544843	      3.31655009	    -10.17211579	      1.15992113	      6.73444391	     -4.54218757	     -1.57530103
      3.74500000	    -10.37118743	      4.21922566	     -0.87435794	     -2.09962666	     -0.00870486	     -0.64876499	     27.20633824	     -7.01323619	     -3.54146072	    -66.91593010	     -9.91860735	    -19.77028573	      1.21854411	     20.06153494	      7.63124333	    -12.13165474	    -17.13323391	      3.45370452	    -10.02153425	      1.15169745	      6.61640309	     -4.46633078	     -1.78097652
      3.75000000	    -10.26600248	      4.14191402	     -0.73998203	     -2.09478236	     -0.00786325	     -0.64952136	     27.67853233	     -6.91653886	     -3.58954485	    -66.74662706	     -9.34574268	    -19.72771034	      1.67530966	     19.36551969	      7.69408642	    -11.98109150	    -16.67116163	      3.58705499	     -9.85924875	      1.18132035	      6.48232156	     -4.38371938	     -1.98627703
      3.75500000	    -10.13776252	      4.05649021	     -0.60422067	     -2.08990995	     -0.00699993	     -0.65027838	     28.09540055	     -6.81403935	     -3.65126852	    -66.48694690	     -8.79851801	    -19.69749095	      2.11913888	     18.63354797	      7.74617781	    -11.83087879	    -16.19138620	      3.70888743	     -9.69291680	      1.23886443	      6.33301818	     -4.29010796	     -2.18885827
      3.76000000	    -10.00465931	      3.96669125	     -0.47027633	     -2.08501688	     -0.00614413	     -0.65103989	     28.48017536	     -6.71210063	     -3.73024148	    -66.14124578	     -8.27002867	    -19.68996027	      2.50305542	     17.89064823	      7.78931882	    -11.67936172	    -15.70365270	      3.82288436	     -9.52227939	      1.31555271	      6.18089604	     -4.19205994	     -2.38964534
      3.76500000	     -9.85736694	      3.87067987	     -0.33567147	     -2.08010854	     -0.00529346	     -0.65181213	     28.82301469	     -6.60902804	     -3.82307172	    -65.71587393	     -7.75919024	    -19.69313110	      2.83774625	     17.12692766	      7.82324497	    -11.53285067	    -15.20629682	      3.93032131	     -9.35338210	      1.40469335	      6.01757890	     -4.08178840	     -2.59006158
      3.77000000	     -9.71112099	      3.77391067	     -0.20114658	     -2.07520132	     -0.00447108	     -0.65259627	     29.14389074	     -6.50897369	     -3.92465347	    -65.21384239	     -7.26403540	    -19.71654577	      3.10070632	     16.36311776	      7.85284134	    -11.38767785	    -14.70582841	      4.03043762	     -9.18135392	      1.49736441	      5.85761136	     -3.96481046	     -2.78471517
      3.77500000	     -9.56708056	      3.67546041	     -0.06830307	     -2.07029704	     -0.00369051	     -0.65339356	     29.44533198	     -6.41391971	     -4.04000520	    -64.64008464	     -6.77772086	    -19.75135363	      3.28288281	     15.60214547	      7.87712519	    -11.24335632	    -14.20518828	      4.13377592	     -9.00719729	      1.58852674	      5.70089098	     -3.84418622	     -2.97687648
      3.78000000	     -9.43157319	      3.57688672	      0.06534196	     -2.06540146	     -0.00296198	     -0.65419110	     29.73433101	     -6.32390408	     -4.16807740	    -63.99678692	     -6.29835272	    -19.80132920	      3.37453262	     14.85342311	      7.89664332	    -11.09893232	    -13.70904847	      4.24071284	     -8.82851448	      1.67163309	      5.55304568	     -3.71936594	     -3.16725720
      3.78500000	     -9.29858200	      3.47512591	      0.20308062	     -2.06051766	     -0.00227860	     -0.65500408	     30.00081288	     -6.23835501	     -4.31341650	    -63.28017943	     -5.83116278	    -19.86853437	      3.37266970	     14.11067293	      7.91017379	    -10.95451455	    -13.21700837	      4.35218865	     -8.64299010	      1.74880571	      5.40713766	     -3.58935479	     -3.36039515
      3.79000000	     -9.19280216	      3.37637635	      0.34067313	     -2.05565315	     -0.00169407	     -0.65581896	     30.28094224	     -6.16265256	     -4.47356377	    -62.50365578	     -5.38538117	    -19.96102159	      3.28522202	     13.40320977	      7.92348494	    -10.79205333	    -12.73444446	      4.49224623	     -8.45586493	      1.82095446	      5.29030674	     -3.46242899	     -3.53896014
      3.79500000	     -9.08243810	      3.26700750	      0.49615884	     -2.05079778	     -0.00113428	     -0.65665861	     30.52006749	     -6.08829411	     -4.66327854	    -61.64417341	     -4.96053411	    -20.08509108	      3.09038630	     12.70030387	      7.92314461	    -10.64013576	    -12.26667865	      4.61924172	     -8.25487037	      1.88835906	      5.16378791	     -3.31991614	     -3.74904698
      3.80000000	     -8.99358399	      3.15710109	      0.65737912	     -2.04598545	     -0.00065039	     -0.65748099	     30.76122321	     -6.01783071	     -4.87190223	    -60.71697469	     -4.57232974	    -20.24746594	      2.77754459	     12.03537140	      7.91618998	    -10.49221587	    -11.81826227	      4.74801545	     -8.05111447	      1.95897205	      5.05519555	     -3.18079912	     -3.96251870
